<svg xmlns="http://www.w3.org/2000/svg" width="1200" height="560" viewBox="0 0 1200 560">
<rect width="100%" height="100%" fill="#fcfbf5"/><text x="600" y="48" text-anchor="middle" font-size="34" font-family="Arial" font-weight="700" fill="#556b2f">Seed Germination Sequence</text>
<g font-family="Arial" font-size="20" font-weight="700" fill="#3d4524"><text x="125" y="115" text-anchor="middle">Dry seed</text><text x="360" y="115" text-anchor="middle">Imbibition</text><text x="600" y="115" text-anchor="middle">Radicle emerges</text><text x="840" y="115" text-anchor="middle">Plumule grows</text><text x="1070" y="115" text-anchor="middle">Seedling</text></g>
<g stroke="#8ca665" stroke-width="5"><line x1="200" y1="280" x2="285" y2="280"/><line x1="435" y1="280" x2="520" y2="280"/><line x1="675" y1="280" x2="760" y2="280"/><line x1="915" y1="280" x2="995" y2="280"/></g>
<g fill="#d5b27b" stroke="#8d6a3d" stroke-width="4"><ellipse cx="125" cy="280" rx="55" ry="75"/><ellipse cx="360" cy="280" rx="66" ry="84"/><ellipse cx="600" cy="270" rx="58" ry="73"/><ellipse cx="840" cy="265" rx="50" ry="65"/><ellipse cx="1070" cy="260" rx="36" ry="50"/></g>
<g fill="none" stroke="#795a34" stroke-width="8"><path d="M600 338 C580 380 572 410 565 452"/><path d="M840 325 C815 372 805 407 800 460"/><path d="M1070 308 C1048 355 1040 405 1035 470"/></g><g fill="none" stroke="#5d913e" stroke-width="8"><path d="M605 206 C620 230 635 250 647 276"/><path d="M843 205 C855 175 875 155 900 140"/><path d="M1072 210 C1080 165 1090 130 1105 105"/></g>
<text x="600" y="525" text-anchor="middle" font-family="Arial" font-size="20" fill="#59634b">Visual cue: water uptake first → radicle (root) usually emerges before the shoot.</text></svg>