<svg xmlns="http://www.w3.org/2000/svg" width="1100" height="650" viewBox="0 0 1100 650"><rect width="100%" height="100%" fill="#f8fcff"/><text x="550" y="48" text-anchor="middle" font-size="34" font-family="Arial" font-weight="700" fill="#1f4c70">Common Insect Forms</text><g font-family="Arial" font-size="21" font-weight="700" fill="#31485c"><text x="150" y="125" text-anchor="middle">Beetle</text><text x="410" y="125" text-anchor="middle">Caterpillar</text><text x="690" y="125" text-anchor="middle">Grasshopper</text><text x="950" y="125" text-anchor="middle">Aphid</text></g><g fill="#629c65" stroke="#3f6d42" stroke-width="4"><ellipse cx="150" cy="300" rx="55" ry="82"/><circle cx="150" cy="205" r="27"/><line x1="100" y1="275" x2="55" y2="240"/><line x1="200" y1="275" x2="245" y2="240"/><line x1="105" y1="335" x2="60" y2="380"/><line x1="195" y1="335" x2="240" y2="380"/></g><g fill="#77a86d" stroke="#4e7748" stroke-width="4"><circle cx="330" cy="300" r="30"/><circle cx="385" cy="290" r="34"/><circle cx="445" cy="288" r="36"/><circle cx="505" cy="300" r="30"/></g><g fill="#9cbd54" stroke="#6b823b" stroke-width="4"><ellipse cx="690" cy="295" rx="80" ry="38"/><circle cx="780" cy="270" r="24"/><line x1="650" y1="325" x2="590" y2="405" stroke-width="8"/><line x1="700" y1="330" x2="770" y2="425" stroke-width="8"/></g><g fill="#5c95a8" stroke="#376574" stroke-width="4"><ellipse cx="950" cy="300" rx="75" ry="50"/><circle cx="875" cy="300" r="25"/><line x1="910" y1="345" x2="895" y2="400"/><line x1="950" y1="350" x2="950" y2="405"/><line x1="990" y1="345" x2="1005" y2="400"/></g><text x="550" y="560" text-anchor="middle" font-family="Arial" font-size="20" fill="#536170">Identification starts with overall shape, wing form, legs, mouthparts, and life stage.</text></svg>